<svg version="1.2" xmlns="http://www.w3.org/2000/svg" viewBox="0 0 13364 2933" width="13364" height="2933">
	<title>CASA DE RAÇÃO ATLANTICO - VARELA</title>
	<defs>
		<clipPath clipPathUnits="userSpaceOnUse" id="cp1">
			<path d="m0 0h13364v2933h-13364z"/>
		</clipPath>
	</defs>
	<style>
		.s0 { fill: #ffffff } 
		.s1 { fill: #29883d } 
		.s2 { fill: #42cff6 } 
		.s3 { fill: #d4d5d6 } 
		.s4 { fill: #55c385 } 
		.s5 { fill: #33cc33 } 
		.s6 { fill: #2c2e35 } 
		.s7 { fill: #fff28d } 
	</style>
	<g id="Page 1" clip-path="url(#cp1)">
		<path id="Path 1" class="s0" d="m4311.2 1659.8c227.2 1.8 404.3-110.9 400.7-558.1 0 0-166.3-1.8-350.6 5.3 3.6 238-12.5 282.7-46.5 282.7-37.6 0-51.9-50.1-51.9-379.3-3.6-313 10.8-395.3 53.7-395.3 37.6 0 48.3 50.1 46.5 248.6 0 0 137.7 7.2 345.3 7.2 10.7-284.4-80.5-524.1-375.7-524.1-297 0-424 209.3-424 661.9 0 468.6 116.3 651.1 402.5 651.1zm400.7-57.2c221.9-1.8 320.3 3.5 320.3 3.5l10.7-150.2c62.6 0 118.1 0 150.3 1.8 10.7 141.3 14.3 200.3 14.3 200.3 209.3-5.3 341.6-1.8 341.6-1.8-118-681.5-200.3-1282.6-200.3-1282.6 0 0-198.6-3.6-458 7.1-100.1 747.8-178.9 1221.9-178.9 1221.9zm404.3-957.1c0 0 26.9 246.9 55.5 549.2 0 0-51.9 1.8-109.1 0 21.4-257.6 42.9-452.6 53.6-549.2zm803.3 1007.2c228.9 0 384.6-103.8 384.6-359.6 0-198.6-62.6-297-305.9-406.1-89.5-39.4-123.5-102-123.5-169.9 0-66.2 14.3-103.8 46.5-103.8 34 0 60.9 50.1 41.2 202.1 159.2 3.6 323.8 17.9 323.8 17.9 30.4-307.7-84.1-474-359.6-474-223.6 0-390 93-390 343.4 0 193.2 64.4 311.3 275.5 416.9 123.5 62.6 153.9 110.9 153.9 177.1 0 76.9-14.3 100.1-48.3 100.1-46.5 0-62.6-66.1-51.9-209.3-200.4 0-332.8-3.5-332.8-3.5-19.6 296.9 78.8 468.7 386.5 468.7zm384.6-50.1c221.8-1.8 320.2 3.5 320.2 3.5l10.7-150.2c62.6 0 118.1 0 150.3 1.8 10.7 141.3 14.3 200.3 14.3 200.3 209.3-5.3 341.7-1.8 341.7-1.8-118.1-681.5-200.4-1282.6-200.4-1282.6 0 0-198.5-3.6-457.9 7.1-100.2 747.8-178.9 1221.9-178.9 1221.9zm404.3-957.1c0 0 26.8 246.9 55.4 549.2 0 0-51.9 1.8-109.1 0 21.5-257.6 42.9-452.6 53.7-549.2zm790.7 991.1c93 14.3 175.3 21.4 252.2 21.4 339.9 0 522.4-168.1 522.4-615.4 0-468.7-141.4-676.2-536.7-676.2-69.8 0-150.3 9-236.2 23.3 0 0 1.8 640.4-1.7 1246.9zm329.1-236.2c0 0-8.9-382.8-10.7-762.1 82.3-8.9 107.3 85.9 107.3 388.2 0 354.2-26.8 379.3-96.6 373.9zm513.4 223.6c302.4 3.6 565.3 12.6 565.3 12.6 0-198.6 3.6-298.8 3.6-298.8-150.3-5.4-250.4-12.5-250.4-12.5-5.4-96.6-5.4-157.4-5.4-157.4 119.9 0 216.5 1.8 216.5 1.8-3.6-175.4-1.8-302.4-1.8-302.4-141.4 3.6-207.5 1.8-221.9 1.8 0 0-1.7-73.3 0-166.4 94.9-3.5 266.6-5.3 266.6-5.3-5.4-186.1-3.6-316.7-3.6-316.7-431.1 3.6-583.2 5.4-583.2 5.4 10.8 720.9 14.3 1237.9 14.3 1237.9zm1431.2 44.8c214.6-12.6 336.3-21.5 336.3-21.5-109.1-300.5-164.6-475.9-178.9-522.4 93-66.2 150.3-169.9 150.3-325.6 0-295.1-150.3-450.8-479.5-450.8-84 0-178.9 10.8-286.2 30.5 1.8 753.1-7.2 1227.1-7.2 1227.1 191.5-3.5 331-1.7 331-1.7l-7.2-384.7c12.6 0 25.1-1.7 25.1-1.7 75.1 275.4 116.3 450.8 116.3 450.8zm-141.4-665.5c0 0-3.5-191.4-5.3-379.3 80.5-7.1 116.3 73.4 116.3 198.6 0 127-41.2 178.9-111 180.7zm459.8 599.3c221.8-1.8 320.2 3.5 320.2 3.5l10.7-150.2c62.7 0 118.1 0 150.3 1.8 10.7 141.3 14.3 200.3 14.3 200.3 209.3-5.3 341.7-1.8 341.7-1.8-118.1-681.5-200.4-1282.6-200.4-1282.6 0 0-198.5-3.6-457.9 7.1-100.2 747.8-178.9 1221.9-178.9 1221.9zm404.3-957.1c0 0 26.8 246.9 55.4 549.2 0 0-51.8 1.8-109.1 0 21.5-257.6 43-452.6 53.7-549.2zm1227.2 456.2c0 0-166.4-1.8-350.6 5.3 3.5 238-12.6 282.7-46.6 282.7-37.5 0-51.8-50.1-51.8-379.3-3.6-313 10.7-395.3 53.6-395.3 37.6 0 48.3 50.1 46.5 248.6 0 0 137.8 7.2 345.3 7.2 10.7-284.4-80.5-524.1-375.7-524.1-296.9 0-423.9 209.3-423.9 661.9 0 438.2 101.9 626.1 348.8 649.3-14.3 91.3-30.4 157.4-30.4 157.4 109.1-7.1 150.3 7.2 150.3 34 0 21.5-26.9 32.2-55.5 32.2-44.7 0-100.2-10.7-143.1-30.4-9 78.7-17.9 136-17.9 136 44.7 16.1 100.2 25 152.1 25 141.3 0 234.3-68 234.3-173.5 0-80.5-66.2-134.2-178.9-137.7 0-16.1 1.8-44.8 1.8-44.8 198.6-17.9 345.3-146.7 341.7-554.5zm0 500.9c221.8-1.8 320.2 3.5 320.2 3.5l10.7-150.2c62.6 0 118.1 0 150.3 1.8 10.7 141.3 14.3 200.3 14.3 200.3 209.3-5.3 341.7-1.8 341.7-1.8-118.1-681.5-200.4-1282.6-200.4-1282.6 0 0-198.5-3.6-457.9 7.1-100.2 747.8-178.9 1221.9-178.9 1221.9zm404.3-957.1c0 0 26.8 246.9 55.4 549.2 0 0-51.9 1.8-109.1 0 21.5-257.6 42.9-452.6 53.7-549.2zm-121.7-350.6c-5.3-43 12.5-71.6 46.5-71.6 66.2 0 91.3 76.9 204 76.9 114.5 0 177.1-101.9 148.5-284.4-107.4 10.7-152.1 10.7-152.1 10.7 7.1 62.7-14.3 78.8-48.3 78.8-64.4 0-96.6-87.7-189.6-87.7-128.8 0-184.3 123.4-175.3 284.4 119.8-7.1 166.3-7.1 166.3-7.1zm951.7 1368.5c275.5 0 402.5-168.2 406.1-636.9 0-418.6-76.9-667.2-407.9-667.2-322 0-404.3 273.7-404.3 669 1.8 413.3 109.2 635.1 406.1 635.1zm3.6-245.1c-41.1 0-57.2-44.7-57.2-393.5 0-345.3 5.3-409.7 53.6-409.7 39.4 0 53.7 48.3 53.7 397.1 0 365-14.3 406.1-50.1 406.1z"/>
		<path id="Path 2" class="s1" d="m6466.7 2887.9c144.3-1.2 208.3 2.3 208.3 2.3l7-97.8c40.8 0 76.8 0 97.8 1.2 7 91.9 9.3 130.4 9.3 130.4 136.2-3.5 222.3-1.2 222.3-1.2-76.8-443.5-130.3-834.6-130.3-834.6 0 0-129.2-2.4-298 4.6-65.2 486.6-116.4 795.1-116.4 795.1zm263-622.8c0 0 17.5 160.6 36.1 357.4 0 0-33.7 1.1-71 0 14-167.7 28-294.5 34.9-357.4zm253.8 33.7l124.6-1.1c3.5 376 1.1 614.6 1.1 614.6 140.9-3.5 209.6-1.1 209.6-1.1-3.5-296.9-4.7-482-4.7-613.5 76.8 0 123.4 1.1 123.4 1.1-1.2-130.3 3.5-206 3.5-206-301.5 5.8-458.7 4.7-458.7 4.7 3.5 150.1 1.2 201.3 1.2 201.3zm493.6 601.9c0 0 280.5 1.1 376 4.6 0 0-1.2-76.8 1.1-192 0 0-75.6 0-169.9-3.5-8.2-490.1-4.7-606.5-4.7-606.5-140.8 2.3-209.5 0-209.5 0 7 476.1 7 797.4 7 797.4zm388.8-12.8c144.3-1.2 208.3 2.3 208.3 2.3l7-97.8c40.8 0 76.9 0 97.8 1.2 7 91.9 9.3 130.4 9.3 130.4 136.2-3.5 222.4-1.2 222.4-1.2-76.9-443.5-130.4-834.6-130.4-834.6 0 0-129.2-2.4-298 4.6-65.2 486.6-116.4 795.1-116.4 795.1zm263.1-622.8c0 0 17.4 160.6 36 357.4 0 0-33.7 1.1-71 0 14-167.7 28-294.5 35-357.4zm-110.6-203.7c71-69.9 105.9-99 105.9-99 83.8 67.5 114.1 97.8 114.1 97.8 53.5-61.7 85-90.8 85-90.8-107.1-93.1-138.6-125.7-138.6-125.7-97.7 11.6-126.8 11.6-126.8 11.6-87.4 94.3-125.8 130.4-125.8 130.4 64.1 52.4 86.2 75.7 86.2 75.7zm419 823c119.9 0 196.8 3.5 196.8 3.5-10.5-165.3-15.2-279.4-17.5-359.7 87.3 233.9 145.5 399.2 145.5 399.2 130.4-10.4 188.6-19.7 188.6-19.7-15.1-519.2-21-830-21-830-117.5 1.1-189.7-3.5-189.7-3.5 16.3 202.5 25.6 346.9 30.3 441.2-89.7-248-138.6-395.8-138.6-395.8-114 3.5-197.9 9.3-197.9 9.3 8.2 470.3 3.5 755.5 3.5 755.5zm543.7-585.6l124.5-1.1c3.5 376 1.2 614.6 1.2 614.6 140.8-3.5 209.5-1.1 209.5-1.1-3.5-296.9-4.6-482-4.6-613.5 76.8 0 123.3 1.1 123.3 1.1-1.1-130.3 3.5-206 3.5-206-301.5 5.8-458.6 4.7-458.6 4.7 3.5 150.1 1.2 201.3 1.2 201.3zm497 607.7c142-1.2 211.9 0 211.9 0-3.5-420.2-5.8-810.2-5.8-810.2-138.6 1.2-210.7 1.2-210.7 1.2 5.8 452.8 4.6 809 4.6 809zm514.5 18.6c147.9 1.2 263.1-72.2 260.8-363.2 0 0-108.3-1.1-228.2 3.5 2.4 154.8-8.1 183.9-30.2 183.9-24.5 0-33.8-32.5-33.8-246.7-2.3-203.8 7-257.3 34.9-257.3 24.5 0 31.5 32.6 30.3 161.8 0 0 89.6 4.7 224.7 4.7 7-185.1-52.4-341.1-244.5-341.1-193.2 0-275.9 136.2-275.9 430.7 0 305 75.7 423.7 261.9 423.7zm548.3 2.3c179.3 0 261.9-109.4 264.3-414.4 0-272.4-50.1-434.2-265.4-434.2-209.6 0-263.1 178.1-263.1 435.4 1.1 268.9 71 413.2 264.2 413.2zm2.3-159.4c-26.7 0-37.2-29.1-37.2-256.1 0-224.7 3.5-266.6 34.9-266.6 25.6 0 34.9 31.4 34.9 258.4 0 237.5-9.3 264.3-32.6 264.3z"/>
		<path id="Path 3" fill-rule="evenodd" class="s2" d="m404 1201.1c-20.7-20.7-32.5-33.6-42.7-46.3-10.2-12.7-18.7-25.2-23.4-34.7-4.8-9.5-5.8-16-5.6-23.3 0.2-7.2 1.6-15.3 7.4-29.6 5.9-14.4 16.2-35.1 31.7-61.7 15.4-26.6 36-59.1 59.7-92.9 23.7-33.9 50.6-69.1 73.9-93.6 23.4-24.6 43.3-38.4 67.3-50.7 24.1-12.3 52.3-22.9 90.6-31 38.3-8.1 86.5-13.7 126.3-15 39.7-1.4 70.9 1.5 100.3 7.3 29.4 5.7 57 14.2 81.8 26.7 24.8 12.4 47 28.8 63.5 44.8 16.6 15.9 27.6 31.4 37.6 48.9 10.1 17.5 19.1 37 28.2 49.6 9.1 12.6 18.1 18.3 40.2 28.9 22 10.5 57 25.8 94.4 39.4 37.4 13.6 77.3 25.5 104 35.4 26.7 9.8 40.4 17.5 48.2 24.6 7.8 7 9.9 13.5 8.5 24.3-1.4 10.8-6.3 26.1-14.6 44.5-8.4 18.3-20.3 39.9-35 62.4-14.8 22.5-32.4 46-51.2 65.1-18.8 19.1-38.8 33.7-56.2 43.4-17.3 9.6-32 14.2-46.5 17-14.5 2.8-28.8 3.7-48.2 3.9-19.4 0.1-43.9-0.6-69.6 0.3-25.8 0.9-52.8 3.4-73.8 9.7-21 6.3-35.9 16.4-47.9 28.7-12.1 12.3-21.3 26.9-28.3 40.9-7 14-11.7 27.4-16.9 55.1-5.2 27.7-10.9 69.6-13.7 90.6-2.9 21-2.9 21-2.9 21 0 0 0 0-14.3-10.7-14.2-10.7-42.8-32.1-62.1-44.6-19.4-12.6-29.6-16.3-38.3-17.4-8.8-1.1-16 0.5-22.3 4.4-6.2 3.8-11.5 9.8-15.7 16.4-4.2 6.5-7.4 13.5-9.8 21-2.4 7.5-4.2 15.5-4.9 20.7-0.8 5.1-0.5 7.4-0.3 8.5 0.1 1.2 0.1 1.2 0.1 1.2 0 0 0 0-7-4-7-3.9-21.1-11.8-34.6-16.9-13.5-5.2-26.5-7.6-36.8-7.2-10.2 0.4-17.7 3.5-25.5 10.7-7.9 7.2-16.2 18.5-21.9 30.3-5.7 11.8-8.8 24.1-8.6 40.3 0.3 16.2 3.9 36.2 8.2 53 4.2 16.8 9.1 30.5 17.8 52.2 8.7 21.7 21.3 51.4 39.3 79.4 18 28 41.4 54.2 65.8 76 24.3 21.8 49.5 39.1 62.2 47.8 12.6 8.7 12.6 8.7 12.6 8.7 0 0 0 0-1.5 6.4-1.4 6.4-4.3 19.3-8.1 31.4-3.8 12.1-8.5 23.5-10.9 29.1-2.4 5.7-2.4 5.7-2.4 5.7 0 0 0 0-10.6-0.2-10.6-0.2-31.9-0.6-60.8 1.9-28.9 2.5-65.4 8-94.7 15.2-29.2 7.2-51.1 16.1-77.8 29.5-26.6 13.4-58 31.2-90.2 60.2-32.1 28.9-65 69.1-91.5 111.4-26.5 42.3-46.6 86.7-58.5 119.6-12 33-15.7 54.5-18.4 74.9-2.7 20.4-4.4 39.5-5.4 53.1-1.1 13.6-1.5 21.6-1.7 25.6-0.2 4-0.2 4-0.2 4 0 0 0 0-11.5 0.6-11.5 0.6-34.6 1.9-63.6 7-29 5.1-64.1 14.1-87.8 21.7-23.8 7.7-36.4 14-42.7 17.2-6.2 3.2-6.2 3.2-6.2 3.2 0 0 0 0-6.7-21.5-6.7-21.4-20.1-64.3-28.3-106.8-8.2-42.5-11.2-84.5-13.1-120.4-1.8-35.9-2.5-65.5 1.8-102.4 4.2-36.9 13.4-81 25.6-124.6 12.3-43.5 27.7-86.5 43.2-122.8 15.4-36.3 30.9-66 48.8-96.4 17.8-30.5 37.9-61.6 67.8-104.9 29.8-43.2 69.4-98.4 99-147.7 29.6-49.3 49.2-92.6 64.6-131.8 15.5-39.1 26.8-74 34.6-100.4 7.7-26.4 11.8-44.2 13.9-53.1 2-8.9 2-8.9 2-8.9 0 0 0 0 14.5 12.6 14.6 12.5 43.6 37.6 75.2 56.1 31.7 18.4 65.9 30.4 93.7 36.6 27.8 6.2 49.1 6.8 67.2 4.3 18.1-2.5 32.9-7.9 46.2-17.5 13.4-9.6 25.3-23.3 34.6-38.7 9.3-15.4 16-32.5 21.1-52.2 5.2-19.7 8.7-41.9 9.6-68.8 1-26.9-0.5-58.4-5.8-94.2-5.3-35.8-14.3-75.9-23.2-106.9-8.9-31.1-17.5-53-26.5-67-8.9-14-18-20.1-23.4-21.3-5.4-1.1-6.9 2.8-6.5 15.4 0.5 12.6 3 33.9 5.6 53.1 2.6 19.3 5.3 36.4 9.1 61.8 3.7 25.4 8.5 59.1 10.4 92.2 1.8 33.2 0.7 65.8-3.1 93.3-3.9 27.5-10.4 49.9-19.8 64.4-9.4 14.6-21.6 21.4-34.6 24.7-13 3.3-26.8 3.2-42 1-15.1-2.2-31.6-6.5-52.3-15.3-20.6-8.9-45.4-22.2-72.5-43-27.1-20.9-56.6-49.2-77.2-69.9z"/>
		<path id="Path 4" fill-rule="evenodd" class="s0" d="m28.4 2646.9c69.5-62 173.4-106.9 314.7-133-22.9-152.1 15.9-296.6 177.9-417.2 55.8-41.5 131.5-66.6 244.8-57.9 35.4 2.8 59.8-1.4 67.4-28.7 10.2-36.9 19.5-79.3 24.1-123.6-133.9-74.6-207.5-185.1-209.5-312-0.1-5.9 2.8-11 7.8-13.9 5.1-3 11-3 16.1 0 107.4 62.9 189.3 167.7 234 273.3 0.8 1.8 2.8 2.7 4.7 2.2 1.9-0.6 3-2.4 2.7-4.4-11.8-73.4-44.3-154.5-92.6-209.6-27.5-31.3-47.1-62.8-43.4-92.7 0.3-2.7 1.8-4.9 4.3-6.1 2.4-1.3 5.1-1.3 7.5 0 106.5 55.6 153.2 166.7 176.9 290.9 62-15.7 166.9 28.1 209.6 107.7 50.7 16 62.9 69.3 17.2 127.2-33.3 42.2-76 63.8-125.4 72.8-6.8 1.2-11.8 6.7-12.3 13.7-10.3 124.4-50.1 208.2-126 245.2 14 66.4 27.4 130.9 40.3 193.8 117.6 31.4 235.2 62.6 352.7 94.2 388.1 104.3 771.9 143.7 1146.3 30.6-274.1 161.3-593.9 167.8-927.4 110.4-112.3-19.4-224.4-41.5-334.1-72.4-217.2-61.3-424.2-117.8-618.8-132.7-194.5-14.9-381.3-3.8-559.5 42.2zm594.3-132.5c8.1-0.2 16.3-0.3 38.7 2.5 22.4 2.9 59.2 8.9 94.4 15.1 35.2 6.2 68.9 12.6 90.1 16.6 21.3 3.9 30.2 5.4 34.6 6.1 4.4 0.8 4.4 0.8 4.4 0.8 0 0 0 0-8.1-6.9-8.1-6.8-24.4-20.5-38.6-36.4-14.3-16-26.5-34.2-35.4-52.4-8.9-18.2-14.5-36.4-20.2-55.6-5.6-19.3-11.2-39.6-18.5-59.3-7.2-19.7-16-38.6-26.6-54.6-10.5-16-22.8-29-35.7-38.3-12.8-9.4-26.2-15.1-39.1-18.2-12.9-3.1-25.3-3.7-32.3-3.7-7 0-8.7 0.4-9.9 1.3-1.2 0.9-1.9 2.1-1.2 5.3 0.7 3.2 2.9 8.4 11.3 16.8 8.4 8.5 23.2 20.3 36.7 31.1 13.5 10.8 25.8 20.5 34.7 33.4 9 12.9 14.5 29.1 18 45.2 3.5 16.2 5 32.3 3.2 48-1.8 15.6-6.7 30.9-15.4 43.8-8.6 13-20.9 23.7-33 31.9-12.1 8.1-24.1 13.6-32.7 17.8-8.7 4.2-14 6.9-19.4 9.7zm407.4-593.7c0 15.1 12.2 27.2 27.2 27.2 15 0 27.2-12.1 27.2-27.2 0-15-12.2-27.2-27.2-27.2-15 0-27.2 12.2-27.2 27.2z"/>
		<path id="Path 5" fill-rule="evenodd" class="s3" d="m1286.7 2261.5c0-16.8 0-33.5 0.6-48.1 0.6-14.5 1.9-26.9 4.6-37.3 2.7-10.4 6.7-18.9 11.2-24.7 4.6-5.7 9.8-8.7 14.5-10.3q6.9-2.5 12.3-1c3.5 1 6.6 3.3 8.3 6.4 1.8 3 2.2 6.8 2.4 13.3 0.2 6.5 0.3 15.6 0.3 20.1 0 4.5 0 4.5 0 4.5 0 0 0 0 5.7 0 5.7 0 17.1 0 36.6 3.3 19.6 3.2 47.3 9.7 70.3 20.3 22.9 10.6 41.1 25.3 54.3 37.7 13.3 12.4 21.6 22.4 27.5 32.4 6 10 9.6 19.9 11.2 26.1 1.5 6.3 1.1 9-0.9 14.9-1.9 5.9-5.3 15.1-13.9 25.1-8.7 10-22.7 20.8-35.7 28.5-13.1 7.7-25.2 12.3-33.9 15.1-8.6 2.8-13.7 3.7-16.3 4.1-2.5 0.5-2.5 0.5-4.7 10.2-2.2 9.7-6.5 29.2-11.6 45.9-5 16.7-10.8 30.6-16.9 43-6.1 12.5-12.6 23.4-17.8 31.4-5.2 7.9-9.2 12.9-11.2 15.4-2 2.5-2 2.5 2.6 4.9 4.6 2.4 13.9 7.3 21.4 12.4 7.5 5 13.2 10.3 17 15.1 3.9 4.8 5.9 9.1 6.6 13.4 0.7 4.4 0.1 8.7-0.1 10.9-0.3 2.2-0.3 2.2-4.8 2.1-4.4 0-13.2-0.1-33.3-1.5-20.2-1.4-51.6-4.1-67.3-5.5-15.7-1.3-15.7-1.3-15.7-1.3 0 0 0 0 0.9-8.3 0.9-8.3 2.7-24.9 3.3-41.7 0.5-16.8 0-33.9-3.7-50.2-3.7-16.2-10.4-31.6-17.2-42.7-6.8-11.1-13.6-17.9-19.9-22.8-6.4-4.9-12.3-7.9-18.3-9.6-6-1.7-12-2-15.4-1.9-3.5 0.2-4.4 0.9-4.8 1.7-0.3 0.8-0.2 1.8 2.9 5.8 3.1 4 9.3 11 15.9 19.7 6.5 8.7 13.5 19.1 19.2 30.3 5.8 11.3 10.3 23.4 10.6 37.1 0.3 13.8-3.6 29.1-7.9 41.2-4.3 12-9 20.8-12.7 26.1-3.7 5.3-6.5 7.2-15.7 8.5-9.1 1.4-24.7 2.1-39 2.1-14.3-0.1-27.4-0.9-40.7-3.1-13.2-2.1-26.7-5.6-38-10.8-11.3-5.1-20.3-11.9-28.3-21.3-7.9-9.3-14.7-21.1-18.6-33.1-3.9-12-4.7-24.1-3.5-39.4 1.3-15.3 4.7-33.7 11.4-53.4 6.8-19.7 16.9-40.6 31.1-60.8 14.2-20.3 32.5-39.8 49.1-53.9 16.5-14 31.2-22.6 46.7-29.3 15.4-6.7 31.5-11.6 43.2-14.1 11.6-2.6 18.9-2.7 26.1-2.9zm121.3-0.2c0 11.3 9.2 20.5 20.5 20.5 11.3 0 20.5-9.2 20.5-20.5 0-11.3-9.2-20.5-20.5-20.5-11.3 0-20.5 9.2-20.5 20.5z"/>
		<path id="Path 6" fill-rule="evenodd" class="s4" d="m2168.2 2030.3c86.9 119.5 104.4 222.8 85.9 384.1-2.6 22.7-17.2 91.4-11.4 107.7 47 0.7 82.2-140.9 89.7-197.7 26.3-200.6-84.7-313.7-111.3-466.7-7.8-45.4-15.6-107 21.6-142.3 4.1-4 9-7.6 14.6-10 5.5-2.4 11.7-3.7 20.8-2.4 9 1.3 20.9 5.2 27.6 10.6 6.7 5.5 8.2 12.5 7.9 21.2-4 140.9 51.8 246.7 78.9 382.1 28.3 141.1 17.6 250.4-35.5 368.4-11.5 25.6-25.6 47.6-39.7 69.8-62.7 98.4-123.2 77.2-236.2 77.2-59.5 0-373.9 8.2-402.6-7.5-10.7-37.6 24.1-71.4 47.6-82.6 19.2-9.2 37.9-6.1 59.3-5.5 6.6 0.2 58.4 4.1 61.2-2 0.6-1.3 1.9-0.9 2.8-1.5-5.4-12.7 0.8-1.6-8-10.5-27.9-28.1-20-12.8-52.3-56.2-16.7-22.5-30.3-48.6-41.7-80.9-11.5-32.4-16.8-71.2-12.5-108.5 4.2-37 22.4-62.6 36-87.4-17 7.9-38 35.5-44.8 61.8-16.9 65.4 11.7 121.1-40.4 277.3-32.1 96.4-10.3 102.9-103.6 103.5-33.4 0.3-58.5-4.2-54.3-45.6 1.3-13.3 10.7-24.2 18.9-31.9 13.7-12.8 21.9-7.5 40-10.7 56.5-113.1 22-253.4-13.1-368.4-43.6-142.9-72.9-212.3-3-355.2 12.1-24.7 20.5-71-4.2-83.1-24.8-12.2-52.4-6.7-77.3-29.3-8.7-7.9-39.5-53.7-36.2-72.7 1.6-9.9 21.7-31.2 23.7-83.5 1.5-39.6 4.2-62.3 23.8-87.3 61.3-77.8 77.8-37.4 104.2-109.5 11.5-31.4 11.4-62 19.6-87.7 58.3-11.5 84.7 82.8 109.6 125.4 20.7 35.3 31.2 25.8 57.5 60.4 17.2 22.6 30.4 42.8 43.6 75.7 14.7 36.8 10.9 66.3 20.5 100.1 18.7 65.4 81.5 132 116.8 182 23 32.5 85.9 94.5 114.1 125.4 28.1 30.8 56 58.3 81.9 93.9z"/>
		<path id="Path 7" fill-rule="evenodd" class="s1" d="m142 2734c580.7-39.1 1086.9 298.4 1494.5 167.8-476.6-25.4-1022.7-332.3-1494.5-167.8zm-15.6-1794.1l67.6-48.1 656.5-466.5 93.2-66.3 345-245.2 278.3 197.7 226 160.6 377.5 268.3 108.9 77.5 171.7 122q0 370.3 0 740.7c0 28.5 23.3 51.8 51.8 51.8 28.5 0 51.8-23.3 51.8-51.8v-767.5c0-17.3-7.7-32.2-21.8-42.2l-420.5-298.9-208.4-148.1-79-56.1-198-140.7-301.7-214.5c-22.3-15.8-50.8-15.8-73.1 0l-601 427.2-271.7 193.1-334.9 238c-14.2 10-21.8 24.9-21.8 42.2v767.5c0 28.5 23.3 51.8 51.8 51.8 28.5 0 51.8-23.3 51.8-51.8zm135.3-96.2l-67.7 48.1"/>
		<path id="Path 8" fill-rule="evenodd" class="s5" d="m1873.9 1590h612.6c9.8 0 17.7-8 17.7-17.8 0-9.7-7.9-17.7-17.7-17.7h-612.6c-2 0-3.9 0.4-5.7 1 1.4 7 2.4 14.1 3.4 21.4 0.5 4.4 1.1 8.7 1.6 13q0.4 0 0.7 0.1z"/>
		<path id="Path 9" fill-rule="evenodd" class="s6" d="m1999.2 1565.7c-57.7 2.8-107 7.6-127.5 11.9q0.4 3.6 0.9 7.1c21.1 2.2 70.3 2.1 127.5-0.6 76.3-3.8 138-10.9 137.8-16-0.3-5-62.4-6.1-138.7-2.4z"/>
		<path id="Path 10" fill-rule="evenodd" class="s7" d="m1927.3 658.6l9.4-32.4c13.1 19.9-6.3 62.4-5 85.8l0.6-0.1 17.9-40.5c7.4-15.1-0.3-6.2 11.1-13.6-4.2 48.3-28.9 92-32.4 114.5 13.9-3.9 25.4-18.7 35.1-25.4-2.7 28-30.4 39.4-33.9 50.4l32.4-13.1c-10.4 24-16.3 17.6-28.7 34l35.3 5.1c-5.2 7 4.9-0.5-7.6 6.9l-35.1 9.9c47.9 28.1 74.8 75.8 117.1 133.3 63.4 86 166.1 213.4 214.8 304.4 46.4 86.8 8.2 32.9 82.2 109.8l26.2 37 57.7 41.5c10.4 8.4 14.5 13.6 25.3 23.6 8.1 7.5 17.9 17.6 23.3 32.1-3 2.8 0 1.8-7 4.2l-2.6 2c13.3 8.1 18.2 15 32.6 24.9 6 4.1 10 9.3 14.8 14.7 8.7 9.8 10.2 9.2 11.2 24.7-24.8 4.1-31.1-12.7-63.7-22.1l-1.5 3.5 32 47.3c22.2 29.1 41.6 64.1 67.9 91.2 8.6 8.8 34.7 31.6 28.7 48.4-16.3 20.2-68.9-43.8-83-54.3-13.5-10-15-11.6-26.1-22.4l-106.9-87c3.4 20.5 28.7 78 37.6 100.9 34.3 88.3 80.3 232.5 106.5 322.1 20.4 69.6 55.1 135 79 202.3 16.4 46.2 79.6 165.9 65 216-0.7-0.3-1.9-1.8-2.1-1.2-2 5.5-40.5-48.5-41.9-50.9-12.1-20.4-22.4-44.5-35-66.5-16.6-28.9-16.2-17.4-37.5-63.4-15.2-32.7-18-37.3-37-63.7-20.1-28-60.7-154-92.6-214.9-27-51.5-44.4-86.4-63.2-128.3-7.1-37.2-11-74.6-9.9-113.8 0.5-16.3-4-30.4-16.9-41-10.5-8.6-26.4-14.1-39.8-16-5.4-0.8-10.5-1-15.6-0.6-6.4-10.5-13.8-23.1-23.2-40.1-31-56.3-43.2-83.9-85.2-113.4-8.6-6.1-55.8-30.1-64.4-28.4-13.7 2.6-12.6 14.2-29.4 20.5-16.4 6.2-27.9 0.2-31.2 18.3 10.8 6.9 47.4 14.5 63.4 18.4 14.6 3.6 15.7 2.5 19.6 14.8-0.8 0.6-2.3 0.2-2.7 1.3l-22.2 2.9c-29.6-1.7-53-8.2-77.6-3.8-7.3 1.4-127.7 11.8-135.9 10.7-11-33.7 112.3-30.2 141.9-78.6-7.4-16.2-28.8-48.1-43.1-57.4-4.2-2.8-8.6-5-13.5-8.8-46.1-35.3-100.4-106.2-126.4-158.1-59-117.5-14.9-197.2-26.1-254.5-6.3-32.3-26.9-50-44.8-33.7-0.4 0.4-1.4 1.4-1.8 1.7-0.4 0.4-1.1 1.4-1.8 1.8-37.7-71.4-17.9-49.8-3.1-112.9 4.3-18.2-12.2-43.3 63.9-84 83-44.4 96.6-185.1 99.3-190.2 7.1 10.3 2.6 36.9 3.6 52.9z"/>
	</g>
</svg>